<svg width="500" height="500" viewBox="0 0 500 500" fill="none" xmlns="http://www.w3.org/2000/svg">
<path d="M225 75L258.677 178.647H367.658L279.491 242.705L313.168 346.353L225 282.295L136.832 346.353L170.509 242.705L82.3415 178.647H191.323L225 75Z" fill="#FEB8DB"/>
<path fill-rule="evenodd" clip-rule="evenodd" d="M250 500C388.071 500 500 388.071 500 250C500 111.929 388.071 0 250 0C221.934 0 194.948 4.62489 169.763 13.1541C188.935 7.83986 209.136 5 230 5C354.264 5 455 105.736 455 230C455 354.264 354.264 455 230 455C105.736 455 5 354.264 5 230C5 209.136 7.83986 188.935 13.1541 169.763C4.62489 194.948 0 221.934 0 250C0 388.071 111.929 500 250 500Z" fill="#FFE1A8"/>
</svg>
