<svg width="500" height="500" viewBox="0 0 500 500" fill="none" xmlns="http://www.w3.org/2000/svg">
  <path
    d="M225 75L258.677 178.647H367.658L279.491 242.705L313.168 346.353L225 282.295L136.832 346.353L170.509 242.705L82.3415 178.647H191.323L225 75Z"
    fill="#FEB8DB" />
  <path fill-rule="evenodd" clip-rule="evenodd"
    d="M250 500C388.071 500 500 388.071 500 250C500 111.929 388.071 0 250 0C230.782 0 212.07 2.16846 194.097 6.27405C201.782 5.43212 209.591 5 217.5 5C334.861 5 430 100.139 430 217.5C430 334.861 334.861 430 217.5 430C100.139 430 5 334.861 5 217.5C5 209.591 5.43212 201.782 6.27405 194.097C2.16846 212.07 0 230.782 0 250C0 388.071 111.929 500 250 500Z"
    fill="#FFE1A8" />
</svg>